# xmcd
#
# Track frame offsets: 
#        150
#        30479
#        54859
#        72948
#        86431
#        104567
#        129447
#        148539
#        169546
#        191489
#
# Disc length: 2918 seconds
#
# Revision: 0
# Processed by: cddbd v1.5.1PL0 Copyright (c) Steve Scherf et al.
# Submitted via: ExactAudioCopy v0.95a5
#
DISCID=7d0b640a
DTITLE=Various Artist - Trax Filles
DYEAR=2005
DGENRE=Electronic
TTITLE0=Ellen Allien - Magma (The MFA Remix)
TTITLE1=Andrea Parker feat DJ Godfather and DJ Assault - Freaky Bitches
TTITLE2=Beady Belle - Skin-Deep
TTITLE3=Tusia Beridze - Wound
TTITLE4=Quartet - Of Love
TTITLE5=Jennifer Cardini feat 22 Crew - Going For Sex
TTITLE6=Coco Rose - Noah's Ark
TTITLE7=Water Lilly - Lottotron Reboot
TTITLE8=Lesbians On Ecstasy - Tell Me Does She Love The Bass
TTITLE9=Flore vs Prosper and Balda - Filthy Criminal
EXTD=
EXTT0=
EXTT1=
EXTT2=
EXTT3=
EXTT4=
EXTT5=
EXTT6=
EXTT7=
EXTT8=
EXTT9=
PLAYORDER=
